<svg width="330" height="43" viewBox="0 0 330 43" fill="none" xmlns="http://www.w3.org/2000/svg">
<path d="M41.0582 8.90614C41.8253 9.41513 42.7474 9.71512 43.7359 9.71512C46.4136 9.71512 48.5922 7.53653 48.5922 4.85879C48.5922 2.18105 46.4136 0 43.7334 0C41.0532 0 38.8771 2.17859 38.8771 4.85633C38.8771 5.8694 39.1894 6.81116 39.723 7.58817L14.1897 33.1214C13.4103 32.5878 12.4685 32.2755 11.4579 32.2755C8.78015 32.2755 6.60156 34.4541 6.60156 37.1319C6.60156 39.8096 8.78015 41.9882 11.4579 41.9882C14.1356 41.9882 16.3142 39.8096 16.3142 37.1319C16.3142 36.1434 16.0167 35.2238 15.5052 34.4541L41.0582 8.90122V8.90614ZM43.7334 1.87368C45.3784 1.87368 46.7161 3.21133 46.7161 4.85633C46.7161 6.50134 45.3784 7.83898 43.7334 7.83898C42.0884 7.83898 40.7508 6.50134 40.7508 4.85633C40.7508 3.21133 42.0884 1.87368 43.7334 1.87368ZM11.4554 40.1194C9.81043 40.1194 8.47279 38.7818 8.47279 37.1368C8.47279 35.4918 9.81043 34.1541 11.4554 34.1541C13.1004 34.1541 14.4381 35.4918 14.4381 37.1368C14.4381 38.7818 13.1004 40.1194 11.4554 40.1194Z" fill="#F6BE19"/>
<path d="M50.2424 12.7668C47.5647 12.7668 45.3861 14.9454 45.3861 17.6232C45.3861 18.7469 45.7746 19.7821 46.4164 20.6058L27.6107 39.4115L22.2134 34.0142C21.847 33.6478 21.2544 33.6478 20.8881 34.0142C20.5217 34.3806 20.5217 34.9732 20.8881 35.3396L27.6107 42.0622L47.8352 21.8353C48.5458 22.2435 49.3646 22.4795 50.2424 22.4795C52.9202 22.4795 55.0988 20.3009 55.0988 17.6232C55.0988 14.9454 52.9202 12.7668 50.2424 12.7668ZM50.2424 20.6058C48.5974 20.6058 47.2598 19.2682 47.2598 17.6232C47.2598 15.9782 48.5974 14.6405 50.2424 14.6405C51.8874 14.6405 53.2251 15.9782 53.2251 17.6232C53.2251 19.2682 51.8874 20.6058 50.2424 20.6058Z" fill="#F6BE19"/>
<path d="M9.71266 23.7997C9.71266 22.8801 9.45202 22.0219 9.0045 21.2892L27.611 2.68268L33.0034 8.07505C33.3698 8.44143 33.9623 8.44143 34.3287 8.07505C34.6951 7.70867 34.6951 7.11608 34.3287 6.7497L27.611 0.0319824L7.74308 19.8999C6.9341 19.2999 5.93825 18.9409 4.85633 18.9409C2.17859 18.9409 0 21.1195 0 23.7973C0 26.475 2.17859 28.6536 4.85633 28.6536C7.53407 28.6536 9.71266 26.475 9.71266 23.7973V23.7997ZM4.85633 26.7824C3.21133 26.7824 1.87368 25.4447 1.87368 23.7997C1.87368 22.1547 3.21133 20.8171 4.85633 20.8171C6.50134 20.8171 7.83897 22.1547 7.83897 23.7997C7.83897 25.4447 6.50134 26.7824 4.85633 26.7824Z" fill="#F6BE19"/>
<path d="M71.3984 21.0289C71.3984 15.1306 75.9156 10.8684 81.9839 10.8684C85.2007 10.8684 87.9671 12.0243 89.8029 14.1745L87.4317 16.4055C85.9911 14.8544 84.2149 14.0895 82.1539 14.0895C78.0616 14.0895 75.0955 16.9664 75.0955 21.0332C75.0955 25.0999 78.0616 27.9768 82.1539 27.9768C84.2149 27.9768 85.9911 27.2161 87.4317 25.6353L89.8029 27.8918C87.9671 30.0378 85.2007 31.1936 81.9541 31.1936C75.9114 31.1936 71.3984 26.9314 71.3984 21.0332V21.0289Z" fill="white"/>
<path d="M103.15 23.9355V30.9089H99.4786V23.995L91.7148 11.1531H95.6371L101.425 20.7781L107.268 11.1531H110.88L103.146 23.9398L103.15 23.9355Z" fill="white"/>
<path d="M132.137 25.5459C132.137 28.9327 129.485 30.9087 124.403 30.9087H114.578V11.1487H123.838C128.58 11.1487 131.121 13.1502 131.121 16.2863C131.121 18.3175 130.106 19.8134 128.58 20.6335C130.701 21.3092 132.137 22.975 132.137 25.5459ZM118.25 14.0256V19.4734H123.443C125.984 19.4734 127.424 18.5683 127.424 16.7622C127.424 14.9562 125.984 14.0256 123.443 14.0256H118.25ZM128.44 25.1762C128.44 23.2002 126.944 22.3248 124.178 22.3248H118.25V28.0276H124.178C126.944 28.0276 128.44 27.1522 128.44 25.1762Z" fill="white"/>
<path d="M152.455 27.8321V30.9087H137.633V11.1487H152.056V14.2253H141.3V19.3629H150.84V22.3843H141.3V27.8321H152.451H152.455Z" fill="white"/>
<path d="M171.052 30.9087L167.015 25.121C166.76 25.1507 166.505 25.1507 166.255 25.1507H161.793V30.9087H158.121V11.1487H166.25C171.443 11.1487 174.664 13.8004 174.664 18.1773C174.664 21.1689 173.139 23.3702 170.457 24.4155L175 30.9087H171.048H171.052ZM166.085 14.255H161.793V22.1293H166.085C169.301 22.1293 170.967 20.6633 170.967 18.1773C170.967 15.6914 169.301 14.255 166.085 14.255Z" fill="white"/>
<path d="M178.922 21.0289C178.922 15.1306 183.439 10.8684 189.507 10.8684C192.724 10.8684 195.491 12.0243 197.326 14.1745L194.955 16.4055C193.515 14.8544 191.738 14.0895 189.677 14.0895C185.585 14.0895 182.619 16.9664 182.619 21.0332C182.619 25.0999 185.585 27.9768 189.677 27.9768C191.738 27.9768 193.515 27.2161 194.955 25.6353L197.326 27.8918C195.491 30.0378 192.724 31.1936 189.478 31.1936C183.435 31.1936 178.922 26.9314 178.922 21.0332V21.0289Z" fill="white"/>
<path d="M214.827 26.3363H204.947L203.001 30.9087H199.219L208.109 11.1487H211.721L220.64 30.9087H216.803L214.827 26.3363ZM213.612 23.4552L209.885 14.8202L206.188 23.4552H213.612Z" fill="white"/>
<path d="M237.654 30.9087L233.617 25.121C233.362 25.1507 233.107 25.1507 232.856 25.1507H228.394V30.9087H224.723V11.1487H232.852C238.045 11.1487 241.262 13.8004 241.262 18.1773C241.262 21.1689 239.736 23.3702 237.059 24.4155L241.602 30.9087H237.65H237.654ZM232.69 14.255H228.398V22.1293H232.69C235.907 22.1293 237.573 20.6633 237.573 18.1773C237.573 15.6914 235.907 14.255 232.69 14.255Z" fill="white"/>
<path d="M259.753 26.3363H249.873L247.923 30.9087H244.141L253.035 11.1487H256.647L265.566 30.9087H261.729L259.753 26.3363ZM258.542 23.4552L254.815 14.8202L251.118 23.4552H258.542Z" fill="white"/>
<path d="M286.681 11.1487L278.072 30.9087H274.46L265.82 11.1487H269.802L276.38 26.3916L283.014 11.1487H286.685H286.681Z" fill="white"/>
<path d="M302.542 26.3363H292.662L290.716 30.9087H286.934L295.823 11.1487H299.436L308.355 30.9087H304.518L302.542 26.3363ZM301.327 23.4552L297.6 14.8202L293.903 23.4552H301.327Z" fill="white"/>
<path d="M330 11.1487V30.9087H326.979L316.083 17.5271V30.9087H312.441V11.1487H315.463L326.358 24.5303V11.1487H330Z" fill="white"/>
</svg>
